<mxfile host="Electron" modified="2024-05-23T16:35:37.710Z" agent="Mozilla/5.0 (Macintosh; Intel Mac OS X 10_15_7) AppleWebKit/537.36 (KHTML, like Gecko) draw.io/24.4.6 Chrome/124.0.6367.207 Electron/30.0.6 Safari/537.36" etag="-QuH1vLqvlFNsmVAsADG" version="24.4.6" type="device">
  <diagram name="Page-1" id="80d4a630-b321-0f5e-ff81-c5a36ef4752d">
    <mxGraphModel dx="956" dy="1419" grid="1" gridSize="10" guides="1" tooltips="1" connect="1" arrows="1" fold="1" page="1" pageScale="1" pageWidth="1100" pageHeight="850" background="none" math="0" shadow="0">
      <root>
        <mxCell id="0" />
        <mxCell id="1" parent="0" />
        <mxCell id="V-L8CxuGm93Yma0LzaDz-4" value="" style="rounded=0;whiteSpace=wrap;html=1;" parent="1" vertex="1">
          <mxGeometry x="260" y="50" width="540" height="250" as="geometry" />
        </mxCell>
        <mxCell id="V-L8CxuGm93Yma0LzaDz-1" value="リモートリポジトリー" style="image;aspect=fixed;perimeter=ellipsePerimeter;html=1;align=center;shadow=0;dashed=0;spacingTop=3;image=img/lib/active_directory/database.svg;whiteSpace=wrap;" parent="1" vertex="1">
          <mxGeometry x="580" y="140" width="146.22" height="108.2" as="geometry" />
        </mxCell>
        <mxCell id="V-L8CxuGm93Yma0LzaDz-2" value="サーバー" style="image;aspect=fixed;perimeter=ellipsePerimeter;html=1;align=center;shadow=0;dashed=0;spacingTop=3;image=img/lib/active_directory/web_server.svg;" parent="1" vertex="1">
          <mxGeometry x="250" y="-20" width="184" height="230" as="geometry" />
        </mxCell>
        <mxCell id="V-L8CxuGm93Yma0LzaDz-16" value="" style="group" parent="1" vertex="1" connectable="0">
          <mxGeometry x="211" y="470" width="237" height="230" as="geometry" />
        </mxCell>
        <mxCell id="V-L8CxuGm93Yma0LzaDz-8" value="" style="rounded=0;whiteSpace=wrap;html=1;" parent="V-L8CxuGm93Yma0LzaDz-16" vertex="1">
          <mxGeometry x="27" y="10" width="210" height="220" as="geometry" />
        </mxCell>
        <mxCell id="V-L8CxuGm93Yma0LzaDz-5" value="ユーザーAのPC" style="image;aspect=fixed;perimeter=ellipsePerimeter;html=1;align=center;shadow=0;dashed=0;spacingTop=3;image=img/lib/active_directory/laptop_client.svg;" parent="V-L8CxuGm93Yma0LzaDz-16" vertex="1">
          <mxGeometry width="90" height="100" as="geometry" />
        </mxCell>
        <mxCell id="V-L8CxuGm93Yma0LzaDz-14" value="ローカルリポジトリー" style="image;aspect=fixed;perimeter=ellipsePerimeter;html=1;align=center;shadow=0;dashed=0;spacingTop=3;image=img/lib/active_directory/database.svg;" parent="V-L8CxuGm93Yma0LzaDz-16" vertex="1">
          <mxGeometry x="100" y="20" width="94.6" height="70" as="geometry" />
        </mxCell>
        <mxCell id="V-L8CxuGm93Yma0LzaDz-17" value="" style="group" parent="1" vertex="1" connectable="0">
          <mxGeometry x="760" y="480" width="237" height="230" as="geometry" />
        </mxCell>
        <mxCell id="V-L8CxuGm93Yma0LzaDz-18" value="" style="rounded=0;whiteSpace=wrap;html=1;" parent="V-L8CxuGm93Yma0LzaDz-17" vertex="1">
          <mxGeometry x="27" y="10" width="210" height="220" as="geometry" />
        </mxCell>
        <mxCell id="V-L8CxuGm93Yma0LzaDz-19" value="ユーザーCのPC" style="image;aspect=fixed;perimeter=ellipsePerimeter;html=1;align=center;shadow=0;dashed=0;spacingTop=3;image=img/lib/active_directory/laptop_client.svg;" parent="V-L8CxuGm93Yma0LzaDz-17" vertex="1">
          <mxGeometry width="90" height="100" as="geometry" />
        </mxCell>
        <mxCell id="V-L8CxuGm93Yma0LzaDz-20" value="ローカルリポジトリー" style="image;aspect=fixed;perimeter=ellipsePerimeter;html=1;align=center;shadow=0;dashed=0;spacingTop=3;image=img/lib/active_directory/database.svg;" parent="V-L8CxuGm93Yma0LzaDz-17" vertex="1">
          <mxGeometry x="100" y="20" width="94.6" height="70" as="geometry" />
        </mxCell>
        <mxCell id="V-L8CxuGm93Yma0LzaDz-21" value="" style="group" parent="1" vertex="1" connectable="0">
          <mxGeometry x="480" y="480" width="237" height="230" as="geometry" />
        </mxCell>
        <mxCell id="V-L8CxuGm93Yma0LzaDz-22" value="" style="rounded=0;whiteSpace=wrap;html=1;" parent="V-L8CxuGm93Yma0LzaDz-21" vertex="1">
          <mxGeometry x="27" y="10" width="210" height="220" as="geometry" />
        </mxCell>
        <mxCell id="V-L8CxuGm93Yma0LzaDz-23" value="ユーザーBのPC" style="image;aspect=fixed;perimeter=ellipsePerimeter;html=1;align=center;shadow=0;dashed=0;spacingTop=3;image=img/lib/active_directory/laptop_client.svg;" parent="V-L8CxuGm93Yma0LzaDz-21" vertex="1">
          <mxGeometry width="90" height="100" as="geometry" />
        </mxCell>
        <mxCell id="V-L8CxuGm93Yma0LzaDz-24" value="ローカルリポジトリー" style="image;aspect=fixed;perimeter=ellipsePerimeter;html=1;align=center;shadow=0;dashed=0;spacingTop=3;image=img/lib/active_directory/database.svg;" parent="V-L8CxuGm93Yma0LzaDz-21" vertex="1">
          <mxGeometry x="100" y="20" width="94.6" height="70" as="geometry" />
        </mxCell>
        <mxCell id="OY7K65gTkZRjUlprwIou-1" value="push/ pull" style="endArrow=classic;startArrow=classic;html=1;rounded=0;exitX=0.5;exitY=0;exitDx=0;exitDy=0;" edge="1" parent="1" source="V-L8CxuGm93Yma0LzaDz-14" target="V-L8CxuGm93Yma0LzaDz-1">
          <mxGeometry width="50" height="50" relative="1" as="geometry">
            <mxPoint x="520" y="420" as="sourcePoint" />
            <mxPoint x="570" y="370" as="targetPoint" />
          </mxGeometry>
        </mxCell>
        <mxCell id="OY7K65gTkZRjUlprwIou-3" value="" style="endArrow=classic;startArrow=classic;html=1;rounded=0;entryX=1;entryY=1;entryDx=0;entryDy=0;exitX=0.5;exitY=0;exitDx=0;exitDy=0;" edge="1" parent="1" source="V-L8CxuGm93Yma0LzaDz-20" target="V-L8CxuGm93Yma0LzaDz-1">
          <mxGeometry width="50" height="50" relative="1" as="geometry">
            <mxPoint x="540" y="440" as="sourcePoint" />
            <mxPoint x="590" y="390" as="targetPoint" />
          </mxGeometry>
        </mxCell>
        <mxCell id="OY7K65gTkZRjUlprwIou-5" value="push/pull" style="edgeLabel;html=1;align=center;verticalAlign=middle;resizable=0;points=[];sketch=1;hachureGap=4;jiggle=2;curveFitting=1;fontFamily=Helvetica;" vertex="1" connectable="0" parent="OY7K65gTkZRjUlprwIou-3">
          <mxGeometry x="-0.102" y="-3" relative="1" as="geometry">
            <mxPoint as="offset" />
          </mxGeometry>
        </mxCell>
        <mxCell id="OY7K65gTkZRjUlprwIou-2" value="" style="endArrow=classic;startArrow=classic;html=1;rounded=0;entryX=0.5;entryY=1;entryDx=0;entryDy=0;" edge="1" parent="1" source="V-L8CxuGm93Yma0LzaDz-24" target="V-L8CxuGm93Yma0LzaDz-1">
          <mxGeometry width="50" height="50" relative="1" as="geometry">
            <mxPoint x="530" y="430" as="sourcePoint" />
            <mxPoint x="580" y="380" as="targetPoint" />
          </mxGeometry>
        </mxCell>
        <mxCell id="OY7K65gTkZRjUlprwIou-4" value="push/pull" style="edgeLabel;html=1;align=center;verticalAlign=middle;resizable=0;points=[];sketch=1;hachureGap=4;jiggle=2;curveFitting=1;fontFamily=Helvetica;" vertex="1" connectable="0" parent="OY7K65gTkZRjUlprwIou-2">
          <mxGeometry x="-0.0084" y="-4" relative="1" as="geometry">
            <mxPoint y="1" as="offset" />
          </mxGeometry>
        </mxCell>
      </root>
    </mxGraphModel>
  </diagram>
</mxfile>
